<?xml version="1.0" standalone="no"?>
<!DOCTYPE svg PUBLIC "-//W3C//DTD SVG 20010904//EN"
 "http://www.w3.org/TR/2001/REC-SVG-20010904/DTD/svg10.dtd">
<svg version="1.0" xmlns="http://www.w3.org/2000/svg"
 width="920.000000pt" height="930.000000pt" viewBox="0 0 920.000000 930.000000"
 preserveAspectRatio="xMidYMid meet">
<metadata>
Created by potrace 1.15, written by Peter Selinger 2001-2017
</metadata>
<g transform="translate(0.000000,930.000000) scale(0.100000,-0.100000)"
fill="#000000" stroke="none">
<path d="M4050 8633 c-1097 -145 -1930 -260 -1936 -266 -10 -10 -1470 -3788
-1497 -3873 -9 -31 1 -43 1438 -1683 1057 -1207 1451 -1650 1463 -1647 14 4
1422 342 3652 877 206 50 378 93 381 97 4 4 241 859 527 1901 l520 1894 -423
901 -423 901 -438 295 c-1161 781 -1282 860 -1311 859 -15 0 -894 -116 -1953
-256z m1993 155 c18 -12 49 -42 71 -65 27 -31 43 -42 57 -38 13 4 224 -132
736 -476 784 -526 728 -487 722 -493 -2 -2 -123 -22 -269 -45 l-264 -40 -26
31 c-17 20 -31 29 -39 24 -9 -6 -7 -14 10 -32 17 -18 19 -25 8 -28 -8 -3 -574
-91 -1259 -196 -685 -104 -1258 -193 -1275 -196 l-30 -6 33 34 c31 33 41 58
23 58 -4 0 -29 -22 -53 -48 l-46 -49 -433 -66 c-239 -37 -443 -67 -453 -67
-11 0 -30 9 -42 21 -28 27 -53 16 -28 -12 9 -10 15 -19 13 -20 -2 0 -173 -26
-379 -59 -206 -32 -378 -55 -381 -52 -5 5 -454 1060 -545 1277 -16 39 -16 40
3 23 20 -18 43 -24 43 -11 0 4 -9 17 -21 29 l-20 22 43 6 c500 71 3691 486
3710 482 15 -3 30 -1 33 4 9 15 24 12 58 -12z m-3598 -1203 c247 -581 267
-631 254 -652 -18 -29 -1942 -2313 -1946 -2310 -1 2 309 813 691 1803 381 989
696 1808 700 1819 7 19 8 19 21 -5 7 -14 133 -308 280 -655z m5245 98 c1 -5
-34 -128 -77 -276 -53 -182 -82 -266 -90 -262 -18 6 -25 -12 -13 -32 9 -14
-59 -255 -334 -1188 -190 -643 -351 -1181 -358 -1195 -6 -14 -11 -29 -10 -33
2 -8 -282 -978 -296 -1011 -7 -16 -13 -12 -41 33 -22 34 -37 49 -44 42 -8 -8
42 -96 65 -112 10 -6 -202 -739 -214 -739 -10 0 -960 1091 -972 1116 -6 11
-18 25 -27 30 -14 7 -639 721 -1496 1706 -93 107 -102 120 -93 143 7 19 6 25
-4 25 -8 0 -16 -6 -19 -12 -7 -18 7 -32 -477 522 -326 374 -427 496 -413 499
10 2 184 29 386 61 304 47 371 54 385 44 14 -11 20 -10 32 5 12 15 86 29 390
75 206 31 388 59 404 62 l29 6 -38 -46 c-21 -26 -35 -49 -31 -53 8 -8 96 76
96 92 0 16 2648 419 2665 405 10 -8 15 -8 22 4 6 10 80 26 258 54 259 41 315
47 315 35z m380 -810 c193 -412 354 -755 357 -763 3 -8 -14 6 -37 33 -41 46
-60 58 -60 36 0 -20 75 -94 92 -91 12 2 20 -7 26 -30 5 -18 21 -51 36 -72 35
-52 33 -68 -14 -101 -57 -40 -51 -66 7 -28 25 17 25 17 19 -5 -4 -12 -22 -77
-41 -144 -561 -2042 -947 -3447 -952 -3462 -5 -18 -7 -18 -25 7 -24 33 -46 25
-23 -9 8 -13 12 -24 8 -24 -21 0 -1153 656 -1153 668 0 24 203 702 210 702 4
0 21 -20 39 -45 18 -25 37 -43 42 -39 11 6 -15 55 -51 94 l-25 27 159 540 159
539 39 28 c27 20 36 32 29 39 -7 7 -15 6 -26 -3 -8 -7 -17 -11 -20 -8 -2 2
142 499 321 1103 178 605 332 1124 340 1153 15 50 17 52 33 38 34 -31 43 -10
12 30 -18 23 -18 26 57 279 41 140 79 255 82 255 4 0 166 -336 360 -747z
m-4879 -474 c425 -488 454 -523 451 -555 -3 -37 4 -43 23 -18 10 14 122 -110
787 -872 427 -489 777 -893 779 -899 2 -5 -9 -12 -25 -15 -16 -3 -31 -11 -34
-19 -3 -10 6 -12 45 -6 l49 6 494 -566 c272 -312 496 -571 498 -575 2 -5 -86
-62 -195 -127 -1676 -1010 -2487 -1494 -2511 -1499 -33 -7 -51 10 -57 55 -7
53 -28 112 -39 108 -6 -3 -10 -10 -8 -18 2 -7 6 -27 8 -43 5 -31 5 -31 -13
-10 -213 239 -2669 3048 -2671 3054 -2 5 12 3 32 -5 43 -18 46 -18 46 -1 0 8
-27 23 -63 36 -80 30 -94 42 -81 75 9 25 2013 2415 2025 2415 3 0 210 -235
460 -521z m3683 -3878 c312 -178 563 -327 559 -331 -9 -9 -3733 -903 -3738
-898 -7 7 2581 1558 2596 1555 9 -1 271 -148 583 -326z"/>
</g>
</svg>
